<svg preserveAspectRatio="none" width="100%" height="100%" overflow="visible" style="display: block;" viewBox="0 0 12.6 9" fill="none" xmlns="http://www.w3.org/2000/svg">
<g id="shape">
<path d="M12.17 4.80381C12.253 4.72456 12.3 4.61478 12.3 4.5C12.3 4.38522 12.253 4.27544 12.17 4.19619L8.21001 0.416192C8.04222 0.25603 7.77636 0.262212 7.6162 0.430001C7.45604 0.59779 7.46222 0.863648 7.63001 1.02381L10.8317 4.07999H0.72C0.48804 4.07999 0.3 4.26803 0.3 4.49999C0.3 4.73195 0.48804 4.91999 0.72 4.91999H10.8317L7.63001 7.97618C7.46222 8.13635 7.45604 8.4022 7.6162 8.56999C7.77636 8.73778 8.04222 8.74397 8.21001 8.5838L12.17 4.80381Z" fill="var(--fill-0, #4169E1)"/>
<path d="M12.17 4.80381C12.253 4.72456 12.3 4.61478 12.3 4.5C12.3 4.38522 12.253 4.27544 12.17 4.19619L8.21001 0.416192C8.04222 0.25603 7.77636 0.262212 7.6162 0.430001C7.45604 0.59779 7.46222 0.863648 7.63001 1.02381L10.8317 4.07999H0.72C0.48804 4.07999 0.3 4.26803 0.3 4.49999C0.3 4.73195 0.48804 4.91999 0.72 4.91999H10.8317L7.63001 7.97618C7.46222 8.13635 7.45604 8.4022 7.6162 8.56999C7.77636 8.73778 8.04222 8.74397 8.21001 8.5838L12.17 4.80381Z" stroke="var(--stroke-0, #4169E1)" stroke-width="0.6" stroke-linecap="round" stroke-linejoin="round"/>
</g>
</svg>
