<svg preserveAspectRatio="none" width="100%" height="100%" overflow="visible" style="display: block;" viewBox="0 0 22.6 22.6" fill="none" xmlns="http://www.w3.org/2000/svg">
<g id="shape">
<path d="M12.14 1.34C12.14 0.876081 11.7639 0.5 11.3 0.5C10.8361 0.5 10.46 0.876081 10.46 1.34V10.46H1.34C0.876082 10.46 0.5 10.8361 0.5 11.3C0.5 11.7639 0.876083 12.14 1.34 12.14H10.46V21.26C10.46 21.7239 10.8361 22.1 11.3 22.1C11.7639 22.1 12.14 21.7239 12.14 21.26V12.14H21.26C21.7239 12.14 22.1 11.7639 22.1 11.3C22.1 10.8361 21.7239 10.46 21.26 10.46H12.14V1.34Z" fill="var(--fill-0, white)"/>
<path d="M12.14 1.34C12.14 0.876081 11.7639 0.5 11.3 0.5C10.8361 0.5 10.46 0.876081 10.46 1.34V10.46H1.34C0.876082 10.46 0.5 10.8361 0.5 11.3C0.5 11.7639 0.876083 12.14 1.34 12.14H10.46V21.26C10.46 21.7239 10.8361 22.1 11.3 22.1C11.7639 22.1 12.14 21.7239 12.14 21.26V12.14H21.26C21.7239 12.14 22.1 11.7639 22.1 11.3C22.1 10.8361 21.7239 10.46 21.26 10.46H12.14V1.34Z" stroke="var(--stroke-0, white)" stroke-linecap="round"/>
</g>
</svg>
