<svg preserveAspectRatio="none" width="100%" height="100%" overflow="visible" style="display: block;" viewBox="0 0 16 16" fill="none" xmlns="http://www.w3.org/2000/svg">
<g id="Icon">
<path id="Vector" d="M6.84534 13C6.96237 13.2027 7.13068 13.371 7.33337 13.488C7.53605 13.605 7.76597 13.6666 8 13.6666C8.23404 13.6666 8.46396 13.605 8.66664 13.488C8.86933 13.371 9.03764 13.2027 9.15467 13" stroke="var(--stroke-0, #191919)" stroke-width="1.4" stroke-linecap="round" stroke-linejoin="round"/>
<path id="Vector_2" d="M2.17418 9.884C2.08709 9.97945 2.02962 10.0982 2.00875 10.2257C1.98788 10.3532 2.00453 10.484 2.05665 10.6023C2.10878 10.7205 2.19414 10.821 2.30235 10.8917C2.41056 10.9623 2.53697 10.9999 2.66618 11H13.3328C13.462 11 13.5885 10.9626 13.6968 10.8921C13.805 10.8216 13.8905 10.7212 13.9428 10.603C13.995 10.4849 14.0118 10.3541 13.9911 10.2265C13.9704 10.099 13.9131 9.98023 13.8262 9.88467C12.9395 8.97067 11.9995 7.99933 11.9995 5C11.9995 3.93913 11.5781 2.92172 10.8279 2.17157C10.0778 1.42143 9.06038 1 7.99951 1C6.93865 1 5.92123 1.42143 5.17109 2.17157C4.42094 2.92172 3.99951 3.93913 3.99951 5C3.99951 7.99933 3.05885 8.97067 2.17418 9.884Z" stroke="var(--stroke-0, #191919)" stroke-width="1.4" stroke-linecap="round" stroke-linejoin="round"/>
</g>
</svg>
