<svg preserveAspectRatio="none" width="100%" height="100%" overflow="visible" style="display: block;" viewBox="0 0 12.8 16.0245" fill="none" xmlns="http://www.w3.org/2000/svg">
<g id="shape">
<path d="M10.4 8.55999C10.4 8.86927 10.1493 9.11999 9.84005 9.11999L2.96005 9.12C2.65077 9.12 2.40005 8.86927 2.40005 8.56C2.40005 8.25072 2.65077 7.99999 2.96005 7.99999H9.84005C10.1493 7.99999 10.4 8.25072 10.4 8.55999Z" fill="var(--fill-0, #A086C4)"/>
<path d="M9.84005 6.71999C10.1493 6.71999 10.4 6.46927 10.4 6.15999C10.4 5.85072 10.1493 5.59999 9.84005 5.59999L2.96005 5.6C2.65077 5.6 2.40005 5.85072 2.40005 6.16C2.40005 6.46927 2.65077 6.72 2.96005 6.72L9.84005 6.71999Z" fill="var(--fill-0, #A086C4)"/>
<path d="M10.4 3.76C10.4 4.06927 10.1493 4.31999 9.84005 4.31999L2.96005 4.32C2.65077 4.32 2.40005 4.06928 2.40005 3.76C2.40005 3.45072 2.65077 3.2 2.96005 3.2L9.84005 3.2C10.1493 3.2 10.4 3.45072 10.4 3.76Z" fill="var(--fill-0, #A086C4)"/>
<path d="M9.84005 10.4L6.16005 10.4C5.85077 10.4 5.60005 10.6507 5.60005 10.96C5.60005 11.2693 5.85077 11.52 6.16005 11.52H9.84005C10.1493 11.52 10.4 11.2693 10.4 10.96C10.4 10.6507 10.1493 10.4 9.84005 10.4Z" fill="var(--fill-0, #A086C4)"/>
<path fill-rule="evenodd" clip-rule="evenodd" d="M0 1.36C0 0.608893 0.608893 0 1.36 0H11.44C12.1911 0 12.8 0.608892 12.8 1.36V14.5566C12.8 15.6248 11.625 16.276 10.7192 15.7099L9.03547 14.6576L7.10488 15.8276C6.67164 16.0902 6.12836 16.0902 5.69512 15.8276L3.76451 14.6576L2.08079 15.7099C1.17496 16.276 0 15.6248 0 14.5566V1.36ZM1.36 1.12C1.22745 1.12 1.12 1.22745 1.12 1.36V14.5566C1.12 14.7451 1.32735 14.86 1.4872 14.7601L3.46319 13.5252C3.64243 13.4131 3.86947 13.4116 4.05023 13.5211L6.27561 14.8698C6.35206 14.9161 6.44793 14.9161 6.52439 14.8698L8.74975 13.5211C8.93051 13.4116 9.15755 13.4131 9.33678 13.5252L11.3128 14.7601C11.4726 14.86 11.68 14.7451 11.68 14.5566V1.36C11.68 1.22745 11.5725 1.12 11.44 1.12H1.36Z" fill="var(--fill-0, #A086C4)"/>
</g>
</svg>
