<svg xmlns="http://www.w3.org/2000/svg" viewBox="0 0 71.873 16" width="72" height="16" fill="none" preserveAspectRatio="xMidYMid meet" aria-label="QIMA">
  <path fill="#E4002B" d="M7.53809 0C11.6939 0 15.0759 3.38077 15.0762 7.53711C15.0762 9.16364 14.5565 10.6708 13.6768 11.9033L15.6338 13.8604C16.1225 14.3497 16.1224 15.1434 15.6338 15.6328C15.3891 15.8775 15.0679 16 14.7471 16C14.4262 16 14.106 15.8775 13.8613 15.6328L11.9043 13.6758C10.6711 14.5557 9.16472 15.0752 7.53809 15.0752C3.38158 15.0752 0 11.6936 0 7.53711C0.000245543 3.3808 3.38173 4.06676e-05 7.53809 0ZM25.3047 0.230469C25.9992 0.230469 26.5508 0.782605 26.5508 1.47656V13.4854C26.5508 14.1799 25.9992 14.7314 25.3047 14.7314C24.5904 14.7314 24.0391 14.1799 24.0391 13.4854V1.47656C24.0391 0.782651 24.5904 0.230541 25.3047 0.230469ZM47.4902 0.904297C48.1819 -0.284661 50.1656 0.145311 50.166 1.5166V13.4854C50.166 14.1792 49.6148 14.7313 48.8994 14.7314C48.2259 14.7314 47.6944 14.1595 47.6943 13.4854V4.94336C47.6605 4.99377 44.7324 9.36135 44.1826 10.1562C43.6255 10.9633 42.6367 10.9602 42.0957 10.1562C41.5511 9.35013 38.5859 4.94824 38.5859 4.94824V13.5059C38.5858 14.2003 38.0337 14.7314 37.3398 14.7314C36.6454 14.7314 36.1144 14.2002 36.1143 13.5059V1.5166C36.1147 0.151214 38.0327 -0.283647 38.8105 0.924805L43.1396 7.70508L47.4902 0.904297ZM64.8262 0.12793C65.5405 0.12793 66.1338 0.515725 66.4199 1.14844L71.7295 12.9941C71.8135 13.1813 71.873 13.3626 71.873 13.5264C71.8728 14.1997 71.3619 14.7304 70.6885 14.7305C70.0959 14.7305 69.7256 14.378 69.4629 13.8525L68.2988 11.1768H61.3545L60.1494 13.9346C59.8825 14.4605 59.5167 14.7304 58.9854 14.7305C58.3317 14.7305 57.8214 14.22 57.8213 13.5664C57.8213 13.3835 57.8872 13.2023 57.9844 12.9941L63.2949 1.14844C63.5804 0.515947 64.1116 0.128102 64.8262 0.12793ZM7.53906 2.50586C4.7652 2.50586 2.50808 4.7633 2.50781 7.53711C2.50781 10.3111 4.76503 12.5693 7.53906 12.5693C10.3131 12.5693 12.5703 10.3111 12.5703 7.53711C12.57 4.7633 10.3129 2.50586 7.53906 2.50586ZM62.3145 8.95117H67.3379L64.8262 3.1709L62.3145 8.95117Z"/>
</svg>
