<svg preserveAspectRatio="none" width="100%" height="100%" overflow="visible" style="display: block;" viewBox="0 0 18 20" fill="none" xmlns="http://www.w3.org/2000/svg">
<g id="shape">
<path d="M5.7 12L11.3 12C11.6866 12 12 12.3134 12 12.7C12 13.0866 11.6866 13.4 11.3 13.4L5.7 13.4C5.3134 13.4 5 13.0866 5 12.7C5 12.3134 5.3134 12 5.7 12Z" fill="var(--fill-0, #737373)"/>
<path d="M11.3 15.3L5.7 15.3C5.3134 15.3 5 15.6134 5 16C5 16.3866 5.3134 16.7 5.7 16.7H11.3C11.6866 16.7 12 16.3866 12 16C12 15.6134 11.6866 15.3 11.3 15.3Z" fill="var(--fill-0, #737373)"/>
<path d="M5.7 8.99996L11.3 8.99996C11.6866 8.99996 12 9.31336 12 9.69996C12 10.0866 11.6866 10.4 11.3 10.4L5.7 10.4C5.3134 10.4 5 10.0866 5 9.69996C5 9.31336 5.3134 8.99996 5.7 8.99996Z" fill="var(--fill-0, #737373)"/>
<path d="M11.3 5.99996L5.7 5.99996C5.3134 5.99996 5 6.31336 5 6.69996C5 7.08656 5.3134 7.39996 5.7 7.39996L11.3 7.39996C11.6866 7.39996 12 7.08656 12 6.69996C12 6.31336 11.6866 5.99996 11.3 5.99996Z" fill="var(--fill-0, #737373)"/>
<path fill-rule="evenodd" clip-rule="evenodd" d="M7.65001 0C6.18645 0 5 1.18645 5 2.65001V3H4.7C3.20883 3 2 4.20883 2 5.7V6.30005H0.7C0.313401 6.30005 0 6.61345 0 7.00005C0 7.38665 0.313401 7.70005 0.7 7.70005H2V9.30005H0.7C0.313401 9.30005 0 9.61345 0 10C0 10.3866 0.313401 10.7 0.7 10.7H2V12.3H0.7C0.313401 12.3 0 12.6134 0 13C0 13.3866 0.313401 13.7 0.7 13.7H2V15.3H0.7C0.313401 15.3 0 15.6134 0 16C0 16.3866 0.313401 16.7 0.7 16.7H2V17.3C2 18.7912 3.20883 20 4.7 20H12.3C13.7912 20 15 18.7912 15 17.3V17H15.3C16.7912 17 18 15.7912 18 14.3V2.7C18 1.20883 16.7912 0 15.3 0H7.65001ZM15 15.6H15.3C16.018 15.6 16.6 15.018 16.6 14.3V2.7C16.6 1.98203 16.018 1.4 15.3 1.4H7.65001C6.95965 1.4 6.4 1.95965 6.4 2.65001V3H12.3C13.7912 3 15 4.20883 15 5.7V15.6ZM3.4 5.7C3.4 4.98203 3.98203 4.4 4.7 4.4H12.3C13.018 4.4 13.6 4.98203 13.6 5.7V17.3C13.6 18.018 13.018 18.6 12.3 18.6H4.7C3.98203 18.6 3.4 18.018 3.4 17.3V5.7Z" fill="var(--fill-0, #737373)"/>
</g>
</svg>
