<svg preserveAspectRatio="none" width="100%" height="100%" overflow="visible" style="display: block;" viewBox="0 0 21.9968 21.9968" fill="none" xmlns="http://www.w3.org/2000/svg">
<g id="Icon">
<path id="Subtract" d="M10.998 1.83203C11.4312 1.83203 11.8508 1.98511 12.1816 2.26465L18.5977 7.76367C18.8011 7.93572 18.965 8.1499 19.0771 8.3916C19.1894 8.63348 19.2471 8.89741 19.2471 9.16406V17.4131C19.2469 17.8991 19.0536 18.3653 18.71 18.709C18.3662 19.0526 17.9001 19.2461 17.4141 19.2461H13.998V13.0264C13.998 12.8202 13.8926 12.6224 13.7051 12.4766C13.5176 12.3308 13.2631 12.249 12.998 12.249H8.99805C8.73295 12.2491 8.47847 12.3308 8.29102 12.4766C8.10363 12.6224 7.99812 12.8202 7.99805 13.0264V19.2461H4.58301C4.09685 19.2461 3.6299 19.0528 3.28613 18.709C2.9425 18.3653 2.75013 17.8991 2.75 17.4131V9.16406C2.74994 8.89741 2.80769 8.63348 2.91992 8.3916C3.03213 8.14986 3.19588 7.93572 3.39941 7.76367L9.81543 2.26465C10.1462 1.98531 10.5651 1.83209 10.998 1.83203Z" fill="var(--fill-0, #4169E1)"/>
</g>
</svg>
