<svg preserveAspectRatio="none" width="100%" height="100%" overflow="visible" style="display: block;" viewBox="0 0 17 11.8339" fill="none" xmlns="http://www.w3.org/2000/svg">
<path id="Wifi" d="M6.11524 8.91884C7.535 7.69318 9.61436 7.6933 11.0342 8.91884C11.1056 8.98478 11.1475 9.07837 11.1494 9.17666C11.1513 9.27486 11.1136 9.36957 11.0449 9.43837L8.8213 11.7284C8.75621 11.7956 8.66776 11.8338 8.5752 11.8339C8.48249 11.8339 8.39331 11.7957 8.32813 11.7284L6.1045 9.43837C6.03588 9.36954 5.99806 9.27483 6.00001 9.17666C6.00204 9.07836 6.04376 8.98473 6.11524 8.91884ZM3.10938 6.17861C6.16846 3.27402 10.9058 3.27402 13.9649 6.17861C14.0337 6.24661 14.0731 6.33961 14.0742 6.4374C14.0752 6.53541 14.0374 6.63056 13.9697 6.70009L12.6846 8.02529C12.5521 8.16047 12.338 8.16381 12.2022 8.03212C11.1977 7.10366 9.89127 6.58874 8.53614 6.58877C7.18182 6.58934 5.87597 7.10422 4.87208 8.03212C4.73623 8.16376 4.52207 8.16052 4.38966 8.02529L3.1045 6.70009C3.03667 6.63066 2.9991 6.53544 3.00001 6.4374C3.00104 6.33965 3.04055 6.24659 3.10938 6.17861ZM0.10743 3.44228C4.79931 -1.14745 12.2007 -1.1474 16.8926 3.44228C16.9604 3.51038 16.9994 3.60299 17 3.70009C17.0006 3.79733 16.9626 3.89087 16.8955 3.95986L15.6094 5.28603C15.4769 5.4219 15.2616 5.42358 15.127 5.28994C13.3393 3.55517 10.9666 2.58692 8.50001 2.58681C6.03337 2.58692 3.66079 3.55516 1.87305 5.28994C1.7385 5.42374 1.52302 5.42215 1.39063 5.28603L0.103523 3.95986C0.0366189 3.89084 -0.000618079 3.79719 7.76313e-06 3.70009C0.000709268 3.60296 0.0395317 3.51035 0.10743 3.44228Z" fill="var(--fill-0, black)"/>
</svg>
